<svg width="1600" height="980" viewBox="0 0 1600 980" fill="none" xmlns="http://www.w3.org/2000/svg">
  <rect width=    <path d="M120 716C338 586 480 594 706 700C884 786 1032 786 1428ei  </g>
  <g opacity="0.9">
    <rect x="202" y="236" width="380" height="448" rx="28" fill="url(#machineBody)" ="300" ry    <rect x="202" 5B    <rect x="232" y="276" width="320" height="176" rx="20" fill="#0F2442" stroke="rgba(255,255,255,0.12)"/>
    <rec>
    <rect x="258" y="302" width="270" height="126" rx="16" fill="url(#screenGlow)"/>
    <rect x="246" y="e=    <rect x="246" y="490" width="292" height="144" rx="22" fill="#0C1526" str4F72"/>
    <rect x="418" y="530" width="54" height="54" rx="12" fill="#24374D"/>
    <rect x="488" y="530" width="28" height="54" rx="12" fill="#3F5E89"/>
  </g>
  <g opacity="0.95">
    <rect x="828" y="182" width="546" height="544" rx="32" fill="url(#panel)" stroke="rgba(255,255,255,0.16)"/>
    <rect x="874" y="244" width="454" height="100" rx="24" fill="#111C31" stroke="rgba(255,255,255,0.12)"/>
    <rect x="898" y="270" width="162" height="18" rx="9" fill="#E8EEF8" fill-opacity="0.88"/>
    <rect x="898" y="300" width="242" height="14" rx="7" fill="#AFC2E2" fill-opacity="0.42"/>
    <rect x="874" y="380" width="454" height="278" rx="24" fill="#0C1424" stroke="rgba(255,255,255,0.10)"/>
    <rect x="914" y="580" width="42" height="38" rx="12" fill="#45E1D2"/>
    <rect x="972" y="536" width="42" height="82" rx="12" fill="#4A92FF"/>
    <rect x="1030" y="494" width="42" height="124" rx="12" fill="#7FB2FF"/>
    <rect x="1088" y="450" width="42" height="168" rx="12" fill="#FF8A5B"/>
    <rect x="1146" y="420" width="42" height="198" rx="12" fill="#4A92FF"/>
    <rect x="1204" y="470" width="42" height="148" rx="12" fill="#65F0E3"/>
  </g>
  <defs>
    <linearGradient id="bg" x1="66" y1="64" x2="1476" y2="916" gradientUnits="userSpaceOnUse">
      <stop stop-color="#071323"/>
      <stop offset="0.48" stop-color="#162B56"/>
      <stop offset="1" stop-color="#2B2345"/>
    </linearGradient>
    <linearGradient id="machineBody" x1="202" y1="236" x2="582" y2="684" gradientUnits="userSpaceOnUse">
      <stop stop-color="#173A67"/>
      <stop offset="1" stop-color="#0D1524"/>
    </linearGradient>
    <linearGradient id="screenGlow" x1="258" y1="302" x2="528" y2="428" gradientUnits="userSpaceOnUse">
      <stop stop-color="#1FD3FF"/>
      <stop offset="1" stop-color="#4466FF"/>
    </linearGradient>
    <linearGradient id="panel" x1="828" y1="182" x2="1374" y2="726" gradientUnits="userSpaceOnUse">
      <stop stop-color="#182C50"/>
      <stop offset="1" stop-color="#101928"/>
    </linearGradient>
    <linearGradient id="line1" x1="130" y1="790" x2="1456" y2="610" gradientUnits="userSpaceOnUse">
      <stop stop-color="#4C79FF" stop-opacity="0"/>
      <stop offset="0.5" stop-color="#A2BCFF"/>
      <stop offset="1" stop-color="#FF9A72" stop-opacity="0.2"/>
    </linearGradient>
    <linearGradient id="line2" x1="190" y1="846" x2="1410" y2="684" gradientUnits="userSpaceOnUse">
      <stop stop-color="#4C79FF" stop-opacity="0"/>
      <stop offset="0.52" stop-color="#7AEBDD"/>
      <stop offset="1" stop-color="#FF9A72" stop-opacity="0.16"/>
    </linearGradient>
    <linearGradient id="line3" x1="120" y1="716" x2="1428" y2="526" gradientUnits="userSpaceOnUse">
      <stop stop-color="#4C79FF" stop-opacity="0"/>
      <stop offset="0.54" stop-color="#A2BCFF"/>
      <stop offset="1" stop-color="#FF9A72" stop-opacity="0.16"/>
    </linearGradient>
    <filter id="blurA" x="620" y="-160" width="1000" height="680" filterUnits="userSpaceOnUse" color-interpolation-filters="sRGB">
      <feGaussianBlur stdDeviation="100"/>
    </filter>
    <filter id="blurB" x="-220" y="-180" width="1280" height="880" filterUnits="userSpaceOnUse" color-interpolation-filters="sRGB">
      <feGaussianBlur stdDeviation="150"/>
    </filter>
  </defs>
</svg>
